# xmcd CD database file
#
# Track frame offsets:
#	150
#	19709
#	45309
#	70109
#	93905
#	111768
#	128440
#	146872
#
# Disc length: 2225 seconds
#
# Revision: 0
# Processed by: cddbd v1.5.1PL0 Copyright (c) Steve Scherf et al.
# Submitted via: CDex 1.51
#
DISCID=6008af08
DTITLE=Chyi - Tibetan Buddhist Mantras
DYEAR=2004
DGENRE=New Age
TTITLE0=The Prajna Paramita Heart Sutra
TTITLE1=The Great Compassion Mantra
TTITLE2=The Six Syllables Great Radian
TTITLE3=The Confessional Sutra
TTITLE4=Watch South Of The Changjiang
TTITLE5=Dream
TTITLE6=Lotus Flowers Blossom Everywhere
TTITLE7=The Great Auspicious Fairy Man
EXTD=YEAR: 2004
EXTT0=
EXTT1=
EXTT2=
EXTT3=
EXTT4=
EXTT5=
EXTT6=
EXTT7=
PLAYORDER=
